<?xml version="1.0" encoding="UTF-8"?>
<svg xmlns="http://www.w3.org/2000/svg" xmlns:xlink="http://www.w3.org/1999/xlink" width="512pt" height="512pt" viewBox="0 0 512 512" version="1.1">
<g id="surface1">
<path style=" stroke:none;fill-rule:nonzero;fill:#000000;fill-opacity:1;" d="M 64 80 L 64 432 L 448 432 L 448 80 Z M 96 112 L 416 112 L 416 176 L 96 176 Z M 128 128 C 119.1875 128 112 135.1875 112 144 C 112 152.8125 119.1875 160 128 160 C 136.8125 160 144 152.8125 144 144 C 144 135.1875 136.8125 128 128 128 Z M 176 128 C 167.1875 128 160 135.1875 160 144 C 160 152.8125 167.1875 160 176 160 C 184.8125 160 192 152.8125 192 144 C 192 135.1875 184.8125 128 176 128 Z M 208 128 L 208 160 L 384 160 L 384 128 Z M 96 208 L 416 208 L 416 400 L 96 400 Z "/>
</g>
</svg>
